<?xml version="1.0" encoding="UTF-8" standalone="no"?><!DOCTYPE svg PUBLIC "-//W3C//DTD SVG 1.1//EN" "http://www.w3.org/Graphics/SVG/1.1/DTD/svg11.dtd"><svg width="100%" height="100%" viewBox="0 0 800 800" version="1.1" xmlns="http://www.w3.org/2000/svg" xmlns:xlink="http://www.w3.org/1999/xlink" xml:space="preserve" xmlns:serif="http://www.serif.com/" style="fill-rule:evenodd;clip-rule:evenodd;stroke-linejoin:round;stroke-miterlimit:2;"><circle cx="400" cy="400" r="400" style="fill:#d04b27;"/><g><path d="M253.084,689.423c-16.078,-0 -30.816,-4.02 -44.215,-12.059c-13.399,-8.039 -24.05,-20.366 -31.956,-36.98c-7.905,-16.614 -11.857,-37.114 -11.857,-61.5c-0,-22.777 4.689,-43.545 14.068,-62.303c9.379,-18.758 22.845,-33.564 40.397,-44.416c17.552,-10.853 38.253,-16.28 62.102,-16.28c13.667,0 26.128,1.474 37.382,4.422l0,-75.166l-40.999,-4.824l-0,-17.284l72.352,-7.235l1.206,-0l8.843,6.431l0,302.272l23.314,0l-0,18.491c-8.575,1.875 -16.012,3.349 -22.309,4.421c-6.297,1.072 -12.93,1.608 -19.897,1.608c-6.967,-0 -11.925,-1.206 -14.872,-3.618c-2.948,-2.411 -4.422,-7.503 -4.422,-15.274l0,-12.863c-7.503,9.111 -17.351,16.748 -29.544,22.912c-12.193,6.163 -25.39,9.245 -39.593,9.245Zm16.079,-28.539c10.451,-0 20.232,-2.345 29.343,-7.034c9.111,-4.69 15.944,-10.116 20.499,-16.28l0,-147.116c-2.143,-3.216 -7.168,-6.097 -15.073,-8.642c-7.905,-2.546 -16.279,-3.819 -25.122,-3.819c-20.902,-0 -37.583,7.972 -50.044,23.916c-12.461,15.945 -18.691,40.531 -18.691,73.76c-0,28.941 5.493,50.378 16.48,64.313c10.987,13.935 25.19,20.902 42.608,20.902Z" style="fill:#efefef;fill-rule:nonzero;"/><path d="M421.505,385.141l-33.765,-4.422l0,-17.284l65.519,-7.637l0.804,-0l8.843,6.029l0,93.254l-1.607,34.167c8.575,-7.771 20.365,-15.141 35.372,-22.108c15.006,-6.967 30.147,-10.451 45.421,-10.451c16.882,0 30.013,3.216 39.392,9.647c9.379,6.431 15.944,16.279 19.696,29.544c3.752,13.265 5.627,31.152 5.627,53.661l0,112.147l28.137,3.617l0,19.696l-96.068,0l0,-19.696l26.128,-3.617l-0,-112.549c-0,-15.81 -1.072,-28.204 -3.216,-37.181c-2.144,-8.977 -6.163,-15.676 -12.059,-20.098c-5.895,-4.421 -14.738,-6.632 -26.529,-6.632c-9.647,0 -19.964,2.412 -30.951,7.235c-10.986,4.824 -20.633,10.451 -28.941,16.883l0,152.342l27.735,3.617l0,19.696l-93.656,0l0,-19.696l24.118,-3.215l-0,-276.949Z" style="fill:#efefef;fill-rule:nonzero;"/></g></svg>